<svg xmlns="http://www.w3.org/2000/svg" viewBox="0 0 256 256" role="img" aria-labelledby="title desc">
  <title id="title">Gubis85 Security Services favicon</title>
  <desc id="desc">A professional shield mark in the Gubis85 brand colors for browser tabs and bookmarks.</desc>
  <rect width="256" height="256" rx="56" fill="#1d295c" />
  <path
    d="M128 34c19 15 42 23 68 23v70c0 47-22 81-68 105-46-24-68-58-68-105V57c26 0 49-8 68-23Z"
    fill="#f6f7fb"
  />
  <path
    d="M128 52c16 12 35 18 56 18v54c0 38-18 65-56 86-38-21-56-48-56-86V70c21 0 40-6 56-18Z"
    fill="#ff6b18"
  />
  <defs>
    <clipPath id="shield-clip">
      <path d="M128 52c16 12 35 18 56 18v54c0 38-18 65-56 86-38-21-56-48-56-86V70c21 0 40-6 56-18Z" />
    </clipPath>
  </defs>
  <g clip-path="url(#shield-clip)">
    <path d="M86 156 151 91h22l-65 65Z" fill="#f6f7fb" />
    <path d="M106 183 180 109h22l-74 74Z" fill="#f6f7fb" />
  </g>
</svg>